jumper10dof24musc.osim_states
version=1
nRows=4
nColumns=69
inDegrees=yes

# SIMM Motion File Header:
name jumper10dof24musc.osim_states
datacolumns 69
datarows 4
otherdata 1
range 0.00000000 0.00001115
endheader
time	pelvis_tilt	pelvis_tx	pelvis_ty	hip_flexion_r	knee_angle_r	ankle_angle_r	hip_flexion_l	knee_angle_l	ankle_angle_l	lumbar_extension	pelvis_tilt_u	pelvis_tx_u	pelvis_ty_u	hip_flexion_r_u	knee_angle_r_u	ankle_angle_r_u	hip_flexion_l_u	knee_angle_l_u	ankle_angle_l_u	lumbar_extension_u	hamstrings_r.activation	hamstrings_r.fiber_length	bifemsh_r.activation	bifemsh_r.fiber_length	glut_max_r.activation	glut_max_r.fiber_length	iliopsoas_r.activation	iliopsoas_r.fiber_length	rect_fem_r.activation	rect_fem_r.fiber_length	vasti_r.activation	vasti_r.fiber_length	gastroc_r.activation	gastroc_r.fiber_length	soleus_r.activation	soleus_r.fiber_length	tib_ant_r.activation	tib_ant_r.fiber_length	ercspn_r.activation	ercspn_r.fiber_length	intobl_r.activation	intobl_r.fiber_length	extobl_r.activation	extobl_r.fiber_length	hamstrings_l.activation	hamstrings_l.fiber_length	bifemsh_l.activation	bifemsh_l.fiber_length	glut_max_l.activation	glut_max_l.fiber_length	iliopsoas_l.activation	iliopsoas_l.fiber_length	rect_fem_l.activation	rect_fem_l.fiber_length	vasti_l.activation	vasti_l.fiber_length	gastroc_l.activation	gastroc_l.fiber_length	soleus_l.activation	soleus_l.fiber_length	tib_ant_l.activation	tib_ant_l.fiber_length	ercspn_l.activation	ercspn_l.fiber_length	intobl_l.activation	intobl_l.fiber_length	extobl_l.activation	extobl_l.fiber_length
      0.00000000	    -24.93481121	     -0.00092501	      0.70916475	     75.99999991	    -79.99999991	     31.49999998	     76.00000049	    -79.99999590	     31.49999998	    -10.00000028	      0.00000000	      0.00000000	      0.00000000	      0.00000000	      0.00000000	      0.00000000	      0.00000000	      0.00000000	      0.00000000	      0.00000000	      0.05000000	      0.10000000	      0.05000000	      0.10000000	      0.05000000	      0.10000000	      0.05000000	      0.10000000	      0.05000000	      0.10000000	      0.05000000	      0.10000000	      0.05000000	      0.10000000	      0.05000000	      0.10000000	      0.05000000	      0.10000000	      0.05000000	      0.10000000	      0.05000000	      0.10000000	      0.05000000	      0.10000000	      0.05000000	      0.10000000	      0.05000000	      0.10000000	      0.05000000	      0.10000000	      0.05000000	      0.10000000	      0.05000000	      0.10000000	      0.05000000	      0.10000000	      0.05000000	      0.10000000	      0.05000000	      0.10000000	      0.05000000	      0.10000000	      0.05000000	      0.10000000	      0.05000000	      0.10000000	      0.05000000	      0.10000000
      0.00000328	    -24.93481929	     -0.00092502	      0.70916474	     76.00000872	    -80.00000013	     31.49999382	     76.00000929	    -79.99999612	     31.49999382	     -9.99998995	     -4.50667586	     -0.00137596	     -0.00712571	      4.90913971	     -0.12603088	     -3.67369958	      4.90914126	     -0.12603481	     -3.67371281	      5.76628860	      0.05054102	      0.10076209	      0.05045176	      0.10992031	      0.05037267	      0.10415535	      0.05054102	      0.09999906	      0.05054102	      0.09999892	      0.05017021	      0.10173044	      0.05000182	      0.09999761	      0.05011346	      0.09688408	      0.05054102	      0.09999886	      0.05054102	      0.10808722	      0.05023907	      0.09999906	      0.05007973	      0.10155542	      0.05054102	      0.10076209	      0.05045176	      0.10992031	      0.05037267	      0.10415535	      0.05054102	      0.09999906	      0.05054102	      0.09999892	      0.05017021	      0.10173044	      0.05000182	      0.09999761	      0.05011346	      0.09688408	      0.05054102	      0.09999886	      0.05054102	      0.10808722	      0.05023907	      0.09999906	      0.05007973	      0.10155542
      0.00000656	    -24.93483853	     -0.00092502	      0.70916471	     76.00002967	    -80.00000071	     31.49997633	     76.00003024	    -79.99999670	     31.49997633	     -9.99996529	     -6.95922244	     -0.00200321	     -0.01079731	      7.57238035	     -0.22989591	     -6.94787266	      7.57238342	     -0.22990344	     -6.94789806	      8.93226595	      0.05108097	      0.10149320	      0.05090273	      0.11599955	      0.05074479	      0.10770014	      0.05108097	      0.09999811	      0.05108097	      0.09999785	      0.05034025	      0.10331389	      0.05000365	      0.09999522	      0.05022683	      0.09501559	      0.05108097	      0.09999772	      0.05108097	      0.11353745	      0.05047786	      0.09999811	      0.05015941	      0.10297820	      0.05108097	      0.10149320	      0.05090273	      0.11599955	      0.05074479	      0.10770014	      0.05108097	      0.09999811	      0.05108097	      0.09999785	      0.05034025	      0.10331389	      0.05000365	      0.09999522	      0.05022683	      0.09501559	      0.05108097	      0.09999772	      0.05108097	      0.11353745	      0.05047786	      0.09999811	      0.05015941	      0.10297820
      0.00001115	    -24.93487419	     -0.00092503	      0.70916465	     76.00006847	    -80.00000213	     31.49993470	     76.00006904	    -79.99999812	     31.49993470	     -9.99991939	     -8.22733004	     -0.00210472	     -0.01232950	      8.95652386	     -0.39204648	    -11.09642948	      8.95652905	     -0.39205860	    -11.09647033	     10.62187156	      0.05183619	      0.10246941	      0.05153364	      0.12138387	      0.05126561	      0.11186830	      0.05183619	      0.09999679	      0.05183619	      0.09999634	      0.05057839	      0.10531417	      0.05000622	      0.09999187	      0.05038564	      0.09322122	      0.05183619	      0.09999612	      0.05183619	      0.11846849	      0.05081215	      0.09999679	      0.05027100	      0.10477543	      0.05183619	      0.10246941	      0.05153364	      0.12138387	      0.05126561	      0.11186830	      0.05183619	      0.09999679	      0.05183619	      0.09999634	      0.05057839	      0.10531417	      0.05000622	      0.09999187	      0.05038564	      0.09322122	      0.05183619	      0.09999612	      0.05183619	      0.11846849	      0.05081215	      0.09999679	      0.05027100	      0.10477543
